<?xml version="1.0" encoding="UTF-8"?>
<svg width="512px" height="512px" viewBox="0 0 512 512" version="1.1" xmlns="http://www.w3.org/2000/svg" xmlns:xlink="http://www.w3.org/1999/xlink">
    <!-- Generator: Sketch 52.5 (67469) - http://www.bohemiancoding.com/sketch -->
    <title>Icon</title>
    <desc>Created with Sketch.</desc>
    <g id="Icon" stroke="none" stroke-width="1" fill="none" fill-rule="evenodd">
        <path d="M281.179828,389.362479 L311.744331,389.362479 L334.703815,366.335076 C394.628277,336.59301 431.706488,315.899376 445.938448,304.254177 C460.170408,292.608977 470.703655,271.095858 477.538188,239.714819 C464.921339,270.389594 447.079191,291.902713 424.011744,304.254177 C416.637848,308.202529 453.223058,261.692741 458.612914,217.138217 C462.206151,187.435201 457.981329,156.055795 445.938448,123 C451.198087,170.85801 451.198087,205.06406 445.938448,225.618149 C431.320646,278.042168 403.934673,315.742941 363.780531,338.720468 C379.898738,318.328142 388.873938,300.663647 390.706132,285.726982 C392.538326,270.790317 392.538326,255.452929 390.706132,239.714819 C383.141383,270.389594 374.166182,295.309549 363.780531,314.474684 C344.396054,342.010097 324.589909,355.777804 304.362097,355.777804 C301.333294,349.590238 297.491435,335.822531 292.836522,314.474684 C288.181608,293.126837 284.296043,271.455898 281.179828,249.461868 C279.606724,278.456102 279.606724,300.127041 281.179828,314.474684 C282.752933,328.822327 286.638497,342.590034 292.836522,355.777804 L281.179828,389.362479 Z" id="Path" stroke="#A8A8A8" stroke-width="3"></path>
        <path d="M34.6416404,389.362479 L65.2061435,389.362479 L88.1656269,366.335076 C148.090089,336.59301 185.1683,315.899376 199.40026,304.254177 C213.63222,292.608977 224.165467,271.095858 231,239.714819 C218.383151,270.389594 200.541003,291.902713 177.473556,304.254177 C170.09966,308.202529 206.684871,261.692741 212.074726,217.138217 C215.667963,187.435201 211.443141,156.055795 199.40026,123 C204.659899,170.85801 204.659899,205.06406 199.40026,225.618149 C184.782458,278.042168 157.396485,315.742941 117.242343,338.720468 C133.36055,318.328142 142.33575,300.663647 144.167944,285.726982 C146.000138,270.790317 146.000138,255.452929 144.167944,239.714819 C136.603195,270.389594 127.627994,295.309549 117.242343,314.474684 C97.8578656,342.010097 78.0517209,355.777804 57.8239088,355.777804 C54.7951059,349.590238 50.9532475,335.822531 46.2983337,314.474684 C41.6434198,293.126837 37.7578554,271.455898 34.6416404,249.461868 C33.0685359,278.456102 33.0685359,300.127041 34.6416404,314.474684 C36.2147449,328.822327 40.1003093,342.590034 46.2983337,355.777804 L34.6416404,389.362479 Z" id="Path-Copy" stroke="#A8A8A8" stroke-width="3" transform="translate(132.230906, 256.181240) scale(-1, 1) translate(-132.230906, -256.181240) "></path>
        <rect id="Rectangle" fill="#000000" transform="translate(255.973925, 388.973925) rotate(-44.000000) translate(-255.973925, -388.973925) " x="214.973925" y="347.973925" width="82" height="82"></rect>
        <text id="4" font-family="Bonham-Regular, Bonham" font-size="100" font-weight="normal" fill="#FFFFFF">
            <tspan x="218" y="427">4</tspan>
        </text>
        <text id="Diamond-4-Ranch" font-family="PlayfairDisplay-Regular, Playfair Display" font-size="45" font-weight="normal" fill="#000000">
            <tspan x="77.4175" y="218">Diamond 4 Ranch</tspan>
        </text>
    </g>
</svg>