<?xml version="1.0" encoding="UTF-8"?>
<svg width="676px" height="198px" viewBox="0 0 676 198" version="1.1" xmlns="http://www.w3.org/2000/svg" xmlns:xlink="http://www.w3.org/1999/xlink">
    <!-- Generator: Sketch 52.5 (67469) - http://www.bohemiancoding.com/sketch -->
    <title>Icon Copy 5</title>
    <desc>Created with Sketch.</desc>
    <g id="Icon-Copy-5" stroke="none" stroke-width="1" fill="none" fill-rule="evenodd">
        <g id="Group" transform="translate(312.000000, 12.000000)">
            <path d="M59.0895586,43.7345589 L144.220522,31.7507626 C150.236342,30.9039219 155.799628,35.0942077 156.646468,41.1100279 C156.950401,43.2691145 156.60583,45.4698215 155.656512,47.4326831 L117.166326,127.017105 C115.551608,130.355785 112.363235,132.656051 108.685702,133.135487 L24.458275,144.116132 C18.4341205,144.901495 12.913916,140.654615 12.128553,134.630461 C11.8537238,132.522373 12.1956565,130.379813 13.1129846,128.461982 L50.6996344,49.8807123 C52.2899938,46.555796 55.4398522,44.2483243 59.0895586,43.7345589 Z" id="Rectangle" stroke="#EBDFD7" stroke-width="12" fill-opacity="0.14" fill="#D8D8D8" transform="translate(84.346597, 87.980227) rotate(-56.000000) translate(-84.346597, -87.980227) "></path>
            <path d="M97.0739386,84.4549831 L105.407904,84.4549831 C107.944049,84.4549831 110,86.5109346 110,89.0470793 C110,91.583224 107.944049,93.6391755 105.407904,93.6391755 L97.0739386,93.6391755 L97.0739386,128.621818 C97.0739386,131.039821 95.1137598,133 92.6957566,133 C90.2777534,133 88.3175745,131.039821 88.3175745,128.621818 L88.3175745,93.6391755 L63.0393021,93.6391755 C60.3385305,93.6391755 57.8200767,92.2764832 56.3425797,90.0156934 L55.7095601,89.0470793 C55.1721292,88.2247303 55.0951746,87.234605 55.4151232,86.3801073 C55.3905338,86.1537438 55.3842044,85.9236551 55.3971719,85.6918122 C57.1675314,79.4586784 62.4268464,70.3355532 71.1751169,58.3224368 L71.1750966,58.322422 C72.6084319,56.3541674 75.2341128,55.675202 77.4419049,56.7019107 C79.3061462,57.5688549 80.1146152,59.7829182 79.2476709,61.6471595 C79.1894163,61.7724277 79.1242337,61.894356 79.0524255,62.0123785 L65.397656,84.4549831 L88.3175745,84.4549831 L88.3175745,56.4698207 C88.3175745,54.0518175 90.2777534,52.0916386 92.6957566,52.0916386 C95.1137598,52.0916386 97.0739386,54.0518175 97.0739386,56.4698207 L97.0739386,84.4549831 Z" id="Combined-Shape" fill="#EBDFD7"></path>
        </g>
        <text id="Diamond" font-family="NotoSerifTC-SemiBold, Noto Serif TC SemiBold" font-size="64" font-weight="500" fill="#EBDFD7">
            <tspan x="38.268" y="122">Diamond </tspan>
        </text>
        <text id="Ranch" font-family="NotoSerifTC-SemiBold, Noto Serif TC SemiBold" font-size="64" font-weight="500" fill="#EBDFD7">
            <tspan x="458.484" y="122">Ranch </tspan>
        </text>
    </g>
</svg>